# xmcd CD database file
#
# Track frame offsets:
#	150
#	21380
#	52990
#	63840
#	82242
#	109922
#	132235
#	148810
#	166617
#	186272
#	200510
#	227520
#	250677
#	269085
#	281732
#	300052
#	311135
#
# Disc length: 4456 seconds
#
# Revision: 5
# Processed by: cddbd v1.5.2PL0 Copyright (c) Steve Scherf et al.
# Submitted via: CDex 1.51
#
DISCID=f3116611
DTITLE=Nina Simon - Nina Simon - Do Nothin Till You Hear From Me
DYEAR=1900
DGENRE=Blues
TTITLE0=Just in Time
TTITLE1=House of the Rising Sun
TTITLE2=It Don t Mean a Thing
TTITLE3=I Loves you Porgy
TTITLE4=Gin House Blues
TTITLE5=Assignment Song
TTITLE6=Solitude
TTITLE7=Sea Lion Woman
TTITLE8=No Opportunity Necessary, No Experience Needed
TTITLE9=Black is the Color
TTITLE10=Wild is the Wind
TTITLE11=Nobody
TTITLE12=Don t Let me be Misunderstood
TTITLE13=Do Nothin  Till You Hear From Me
TTITLE14=I Got it Bad and That Ain t Good
TTITLE15=Hey Buddy Bolden
TTITLE16=My Way
EXTD=
EXTT0=
EXTT1=
EXTT2=
EXTT3=
EXTT4=
EXTT5=
EXTT6=
EXTT7=
EXTT8=
EXTT9=
EXTT10=
EXTT11=
EXTT12=
EXTT13=
EXTT14=
EXTT15=
EXTT16=
PLAYORDER=
